<?xml version="1.0" encoding="UTF-8"?>
<svg version="1.1" viewBox="0 0 486.02 259.78" xmlns="http://www.w3.org/2000/svg" xmlns:xlink="http://www.w3.org/1999/xlink">
 <defs>
  <linearGradient id="q">
   <stop stop-color="#806600" offset="0"/>
   <stop stop-color="#44390e" offset="1"/>
  </linearGradient>
  <linearGradient id="p">
   <stop stop-color="#a80" offset="0"/>
   <stop stop-color="#d3ae1a" offset="1"/>
  </linearGradient>
  <filter id="s" color-interpolation-filters="sRGB">
   <feGaussianBlur stdDeviation="2.7111487"/>
  </filter>
  <filter id="o" color-interpolation-filters="sRGB">
   <feGaussianBlur stdDeviation="0.26742178"/>
  </filter>
  <filter id="t" color-interpolation-filters="sRGB">
   <feGaussianBlur stdDeviation="0.36271608"/>
  </filter>
  <filter id="u" color-interpolation-filters="sRGB">
   <feGaussianBlur stdDeviation="0.94312663"/>
  </filter>
  <filter id="v" color-interpolation-filters="sRGB">
   <feGaussianBlur stdDeviation="3.1214286"/>
  </filter>
  <filter id="w" color-interpolation-filters="sRGB">
   <feGaussianBlur stdDeviation="1.6505791"/>
  </filter>
  <filter id="x" color-interpolation-filters="sRGB">
   <feGaussianBlur stdDeviation="1.6505791"/>
  </filter>
  <linearGradient id="y" x1="447.25" x2="337.82" y1="295" y2="272.78" gradientUnits="userSpaceOnUse" xlink:href="#q"/>
  <linearGradient id="z" x1="333.86" x2="462.64" y1="406.12" y2="406.12" gradientUnits="userSpaceOnUse" xlink:href="#q"/>
  <linearGradient id="aa" x1="342.45" x2="452.8" y1="372.53" y2="372.53" gradientUnits="userSpaceOnUse" xlink:href="#p"/>
  <linearGradient id="r" x1="163.79" x2="510.42" y1="337.01" y2="337.01" gradientUnits="userSpaceOnUse" xlink:href="#p"/>
  <linearGradient id="ab" x1="124.5" x2="552.64" y1="313.79" y2="313.79" gradientUnits="userSpaceOnUse">
   <stop stop-color="#e3c651" offset="0"/>
   <stop stop-color="#ffe680" offset=".5"/>
   <stop stop-color="#ffe680" offset="1"/>
  </linearGradient>
 </defs>
 <g transform="translate(-101.32 -201.73)">
  <path d="m149.29 403.79 184.29 45.714 188.57-35.714-230-50z" filter="url(#s)" opacity=".42808" stroke="#000" stroke-width="1px"/>
  <path d="m166.43 372.36 2.1429 22.143 164.29 45l177.14-27.14-2.8572-48.571-75-123.57-194.29 18.571z" fill="#540" opacity=".30137" stroke="#000" stroke-width="1px"/>
  <path d="m552.14 372.36c-19.379-7.0652-36.876-8.4852-53.571-7.5l-71.43-127.85z" fill="#2b2200" stroke="#000" stroke-width="1px"/>
  <path d="m494.47 366.97 22.728 28.284" fill="none" stroke="#000" stroke-width="1px"/>
  <path d="m444.4 360.41c-2.5254 0-91.603-5.8084-91.603-5.8084l77.208-120.97z" fill="url(#y)" stroke="#000" stroke-width="1px"/>
  <path d="m446.99 413.95-112.63 17.173c7.6644-33.489 1.8312-10.472 11.617-50.003l116.17 19.193z" fill="url(#z)" stroke="#000" stroke-width="1px"/>
  <path d="m358.1 354.35 94.197 5.5558v30.81l-109.35-13.132z" fill="url(#aa)" stroke="#000" stroke-width="1px"/>
  <path d="m343.45 377.33 106.32 13.385v11.617l-106.32-14.647z" fill="#806600" stroke="#000" stroke-width="1px"/>
  <g transform="translate(.35714 3.2143)" fill="url(#r)">
   <path d="m509.92 409.08c-58.54 14.37-117.09 20.37-175.63 30.43-54.73-17.36-111.28-30.16-167.86-42.86l-2.1429-22.143 150 7.1429 114.46-146.79c-24.306 40.33-48.657 80.6-70.179 124.64l-17.857 65c29.294-2.8808 58.588-4.9103 87.882-12.341 4.4652-57.567 0.32917-117.51 0.15335-177.66l78.393 128.57c0.0526 16.429 2.9063 29.574 2.7779 46.003z" fill="url(#r)" stroke="#000" stroke-width="1px"/>
  </g>
  <path d="m334.29 442.36c-1.7492-29.642 5e-3 -56.072 0.35714-83.571" fill="none" stroke="#000" stroke-width="1px"/>
  <path d="m125 376.65 102.14-130.72c65.323-7.4338 129.91-18.554 194.29-30.714 46.386 51.818 89.052 104.38 130.71 157.14l-122.85-134.28c-41.112 59.416-81.854 119.45-125.71 174.29-17.782-9.7384-36.595-13.286-55.714-15-22.39-12.92-30.42-9.69-42.87-11.44-10.215-3.0662-18.458-7.7097-35-5.7143-12.77-4.3119-25.646-8.476-45-3.5714z" fill="url(#ab)" stroke="#000" stroke-width="1px"/>
  <path d="m303.55 411.93-33.082 41.669" fill="none" stroke="#000" stroke-width="1px"/>
  <path d="m247.99 396.77-31.06 39.9" fill="none" stroke="#000" stroke-width="1px"/>
  <path d="m204.56 385.66-30.305 38.891" fill="none" stroke="#000" stroke-width="1px"/>
  <path d="m169.71 379.6-30.305 35.355" fill="none" stroke="#000" stroke-width="1px"/>
  <path d="m125.01 377.08-18.183 26.516" fill="none" stroke="#000" stroke-width="1px"/>
  <path d="m553.06 371.01 28.789 39.396" fill="none" stroke="#000" stroke-width="1px"/>
  <path d="m395.36 356.65v26.429" fill="none" stroke="#000" stroke-width="1px"/>
  <path d="m368.21 355.22v24.643" fill="none" stroke="#000" stroke-width="1px"/>
  <path d="m421.25 215.58-119.11 196.78 126.97-175.35z" fill="#ffeca0"/>
  <path d="m420.89 215.22 9.4643 23.929s109.11 119.72 109.64 118.21c0.31968-0.91159-116.48-140.83-119.11-142.14z" fill="#ffeca0"/>
  <path transform="matrix(-.99925 .03883 -.03883 -.99925 909.49 668.69)" d="m441.94 285.15 12.627 124.25s-4.9564-110.55-5.0508-112.63c-1.1138-24.542-7.9008-23.63-7.5761-11.617z" fill="#806600" filter="url(#t)" opacity=".25"/>
  <path transform="matrix(-.96724 .25387 -.25387 -.96724 1023.9 562.8)" d="m490.43 408.9c0-3.0305-16.101-70.981-16.101-70.981-18.62-51.029 11.325 59.009 16.101 70.981z" fill="#806600" filter="url(#o)" opacity=".25"/>
  <path transform="matrix(-.99676 .080388 -.080388 -.99676 973.77 679.83)" d="m490.43 408.9c0-3.0305-16.101-70.981-16.101-70.981-18.62-51.029 11.325 59.009 16.101 70.981z" fill="#806600" filter="url(#o)" opacity=".25"/>
  <path d="m341.07 427.72c29.619-1.8423 58.937-5.7862 87.882-12.341 3.2648-56.472 0.71247-117.79 0.33192-177.3-25.416 39.584-48.286 81.714-70.357 124.64z" fill="none" filter="url(#u)" opacity=".40753" stroke="#000" stroke-width="2"/>
  <path d="m125 376.65 102.14-130.72c65.323-7.4338 129.91-18.554 194.29-30.714 46.386 51.818 89.052 104.38 130.71 157.14l-122.85-134.28c-41.112 59.416-81.854 119.45-125.71 174.29-17.782-9.7384-36.595-13.286-55.714-15-22.39-12.92-30.42-9.69-42.87-11.44-10.215-3.0662-18.458-7.7097-35-5.7143-12.77-4.3119-25.646-8.476-45-3.5714z" fill="none" filter="url(#v)" opacity=".10959" stroke="#000" stroke-width="2"/>
  <path d="m169.64 378.43c45.378-40.981 82.312-86.465 107.5-138.21" fill="none" filter="url(#w)" opacity=".13356" stroke="#d4aa00" stroke-width="1px"/>
  <path d="m363.93 227.36c-27.884 56.942-71.316 112.59-115 168.21" fill="none" filter="url(#x)" opacity=".13356" stroke="#d4aa00" stroke-width="1px"/>
 </g>
</svg>
